<?xml version="1.0" standalone="no"?>
<!DOCTYPE svg PUBLIC "-//W3C//DTD SVG 20010904//EN"
 "http://www.w3.org/TR/2001/REC-SVG-20010904/DTD/svg10.dtd">
<svg version="1.0" xmlns="http://www.w3.org/2000/svg"
 width="262.000000pt" height="66.000000pt" viewBox="0 0 262.000000 66.000000"
 preserveAspectRatio="xMidYMid meet">

<g transform="translate(0.000000,66.000000) scale(0.100000,-0.100000)"
fill="#000000" stroke="none">
<path d="M0 330 l0 -330 1310 0 1310 0 0 330 0 330 -1310 0 -1310 0 0 -330z
m328 119 c42 -15 60 -60 38 -94 -10 -14 -28 -30 -42 -35 -30 -12 -30 -14 4
-59 40 -51 45 -61 30 -61 -7 0 -30 25 -52 55 -22 31 -48 55 -60 57 -40 6 -21
23 29 26 57 4 75 15 75 48 0 36 -36 54 -107 54 l-63 0 0 -120 c0 -100 -2 -120
-15 -120 -13 0 -15 20 -15 123 0 68 3 127 7 130 10 11 137 8 171 -4z m442 1
c0 -6 -35 -10 -85 -10 l-85 0 0 -50 0 -50 70 0 c40 0 70 -4 70 -10 0 -6 -30
-10 -71 -10 l-70 0 3 -52 3 -53 85 -6 85 -5 -97 -2 -98 -2 0 130 0 130 95 0
c57 0 95 -4 95 -10z m328 -100 l117 -111 3 111 c2 89 5 110 17 110 12 0 15
-22 15 -129 0 -72 -4 -132 -9 -136 -5 -3 -62 45 -125 106 l-116 111 0 -95 c0
-97 -5 -127 -21 -127 -5 0 -9 61 -9 135 0 74 3 135 6 135 3 0 58 -50 122 -110z
m558 84 c74 -49 71 -172 -6 -217 -75 -45 -175 -19 -213 56 -34 66 4 155 76
177 42 12 111 5 143 -16z m272 -91 l59 -117 51 100 c58 112 77 142 87 132 9
-9 -124 -258 -138 -258 -11 0 -138 234 -137 253 0 4 4 7 10 7 5 0 36 -53 68
-117z m513 -9 c61 -131 66 -144 49 -144 -6 0 -19 20 -30 45 l-19 45 -65 0 -66
0 -20 -39 c-21 -42 -40 -61 -40 -40 0 14 119 259 126 259 3 0 32 -57 65 -126z"/>
<path d="M1515 425 c-47 -24 -65 -52 -65 -100 0 -35 6 -49 30 -74 56 -55 133
-51 185 11 44 52 24 132 -41 163 -40 19 -71 19 -109 0z"/>
<path d="M2347 355 l-27 -55 50 0 c28 0 50 4 50 9 0 11 -38 101 -43 101 -1 0
-15 -25 -30 -55z"/>
</g>
</svg>
