<?xml version="1.0" standalone="no"?>
<!DOCTYPE svg PUBLIC "-//W3C//DTD SVG 20010904//EN"
 "http://www.w3.org/TR/2001/REC-SVG-20010904/DTD/svg10.dtd">
<svg version="1.0" xmlns="http://www.w3.org/2000/svg"
 width="960.000000pt" height="174.000000pt" viewBox="0 0 960.000000 174.000000"
 preserveAspectRatio="xMidYMid meet">

<g transform="translate(0.000000,174.000000) scale(0.100000,-0.100000)"
fill="#000000" stroke="none">
<path d="M2155 1725 c-300 -56 -533 -221 -659 -464 -73 -142 -91 -219 -91
-396 0 -175 13 -233 80 -370 57 -115 125 -199 226 -279 292 -231 729 -279
1074 -117 245 115 409 307 476 556 30 113 30 307 0 420 -85 320 -348 566 -682
640 -106 23 -324 28 -424 10z m358 -176 c175 -37 350 -164 446 -323 84 -140
119 -334 87 -486 -50 -239 -236 -443 -481 -526 -107 -36 -276 -45 -390 -19
-124 27 -245 95 -340 190 -137 137 -195 264 -203 446 -6 136 14 229 73 347
146 290 474 441 808 371z"/>
<path d="M5788 1642 c-42 -48 -73 -88 -69 -90 7 -2 482 166 490 174 2 2 -74 4
-170 4 l-174 0 -77 -88z"/>
<path d="M0 815 l0 -695 625 0 625 0 0 75 0 75 -530 0 -530 0 0 620 0 620 -95
0 -95 0 0 -695z"/>
<path d="M1000 1278 c-51 -128 -94 -239 -97 -246 -4 -10 11 -12 68 -10 l74 3
122 230 c68 127 123 236 123 243 0 9 -26 12 -99 12 l-99 0 -92 -232z"/>
<path d="M3540 816 l0 -696 100 0 100 0 0 290 0 290 284 0 283 0 209 -290 208
-290 124 0 c96 0 122 3 116 12 -4 7 -54 74 -110 148 -56 74 -147 198 -202 275
-97 134 -100 140 -79 149 100 40 155 72 202 117 93 88 136 211 115 331 -30
169 -131 281 -299 331 -61 19 -104 20 -558 24 l-493 5 0 -696z m981 508 c95
-28 169 -122 169 -215 0 -54 -31 -130 -69 -168 -70 -70 -89 -73 -508 -79
l-373 -4 0 241 0 241 363 0 c305 0 372 -3 418 -16z"/>
<path d="M5227 1503 c-4 -3 -7 -316 -7 -695 l0 -688 620 0 620 0 0 75 0 75
-510 0 -510 0 0 245 0 245 385 0 385 0 0 75 0 75 -385 0 -385 0 0 220 0 220
510 0 510 0 0 80 0 80 -613 0 c-338 0 -617 -3 -620 -7z"/>
<path d="M7263 1498 c-5 -7 -103 -197 -218 -423 -114 -226 -270 -533 -347
-682 l-140 -273 121 0 121 0 90 180 90 180 423 -2 422 -3 90 -177 90 -178 118
0 117 0 -227 447 c-126 246 -284 558 -353 693 l-125 245 -131 3 c-97 2 -134
-1 -141 -10z m306 -519 c89 -174 161 -319 161 -323 0 -3 -148 -6 -330 -6 -181
0 -330 2 -330 5 0 17 326 653 332 647 4 -4 79 -149 167 -323z"/>
<path d="M8350 815 l0 -695 625 0 625 0 0 75 0 75 -530 0 -530 0 0 620 0 620
-95 0 -95 0 0 -695z"/>
</g>
</svg>
