<?xml version="1.0" standalone="no"?>
<!DOCTYPE svg PUBLIC "-//W3C//DTD SVG 20010904//EN"
 "http://www.w3.org/TR/2001/REC-SVG-20010904/DTD/svg10.dtd">
<svg version="1.0" xmlns="http://www.w3.org/2000/svg"
 width="556.000000pt" height="91.000000pt" viewBox="0 0 556.000000 91.000000"
 preserveAspectRatio="xMidYMid meet">

<g transform="translate(0.000000,91.000000) scale(0.100000,-0.100000)"
fill="#000000" stroke="none">
<path d="M0 455 l0 -455 2780 0 2780 0 0 455 0 455 -2780 0 -2780 0 0 -455z
m625 215 c55 -28 95 -89 95 -143 0 -68 -60 -132 -134 -144 -20 -3 -39 -9 -41
-13 -3 -4 25 -47 62 -96 37 -49 78 -104 91 -121 l24 -33 -34 0 c-33 0 -40 7
-129 125 l-94 124 -42 1 c-41 0 -43 1 -43 30 l0 30 92 0 c107 0 174 24 184 66
11 44 -5 92 -39 116 -29 21 -45 23 -184 26 l-153 4 -2 -259 -3 -258 -27 -3
-28 -3 0 284 c0 156 3 287 7 291 5 4 85 6 178 4 159 -3 174 -5 220 -28z m950
0 l0 -25 -182 -3 -183 -2 0 -100 0 -99 153 -3 152 -3 3 -27 3 -28 -155 0 -156
0 0 -105 0 -105 185 0 185 0 0 -25 0 -25 -215 0 -215 0 0 290 0 290 213 -2
212 -3 0 -25z m733 -217 l257 -247 3 247 2 248 28 -3 27 -3 0 -290 c0 -271 -1
-290 -18 -293 -18 -4 -129 96 -396 355 -70 66 -128 119 -131 116 -6 -6 -7 -20
-8 -271 l-2 -203 -27 3 -28 3 -3 280 c-1 154 0 285 3 292 2 7 11 13 20 13 9 0
132 -111 273 -247z m1179 207 c106 -53 166 -146 166 -257 -1 -112 -66 -208
-182 -265 -37 -18 -63 -23 -136 -23 -77 0 -98 4 -145 26 -64 31 -129 92 -155
146 -27 55 -32 153 -10 210 20 53 80 122 133 155 93 57 222 60 329 8z m629
-205 c70 -135 131 -245 134 -245 4 0 62 105 130 233 67 127 127 238 132 245
13 15 58 16 58 1 0 -7 -43 -93 -96 -193 -53 -100 -121 -227 -151 -284 -68
-129 -78 -130 -137 -17 -163 311 -255 493 -249 499 3 3 16 6 29 6 19 0 41 -37
150 -245z m1139 -46 c72 -154 132 -284 133 -290 2 -5 -10 -9 -27 -9 -30 0 -34
5 -76 95 l-44 95 -140 0 -140 0 -48 -92 c-41 -80 -52 -93 -75 -96 -20 -2 -28
1 -28 12 0 15 262 537 282 563 5 6 15 10 21 7 7 -3 71 -131 142 -285z"/>
<path d="M3203 610 c-91 -46 -135 -115 -135 -210 2 -135 114 -234 267 -234
147 0 257 101 257 235 0 188 -208 300 -389 209z"/>
<path d="M5045 470 c-30 -60 -55 -112 -55 -115 0 -3 50 -5 111 -5 106 0 110 1
104 20 -10 33 -95 210 -100 210 -3 0 -30 -49 -60 -110z"/>
</g>
</svg>
