<?xml version="1.0" standalone="no"?>
<!DOCTYPE svg PUBLIC "-//W3C//DTD SVG 20010904//EN"
 "http://www.w3.org/TR/2001/REC-SVG-20010904/DTD/svg10.dtd">
<svg version="1.0" xmlns="http://www.w3.org/2000/svg"
 width="164.000000pt" height="110.000000pt" viewBox="0 0 164.000000 110.000000"
 preserveAspectRatio="xMidYMid meet">

<g transform="translate(0.000000,110.000000) scale(0.100000,-0.100000)"
fill="#000000" stroke="none">
<path d="M265 897 c-20 -15 -33 -119 -34 -273 -1 -66 2 -84 17 -97 34 -31 101
-16 139 31 7 9 16 13 19 9 14 -13 -8 -59 -52 -108 -52 -59 -80 -110 -71 -133
4 -9 19 -21 34 -27 40 -15 71 13 118 107 65 132 85 145 85 57 0 -76 16 -107
56 -111 22 -2 40 5 62 22 16 15 33 26 36 26 3 0 6 -18 6 -40 0 -29 5 -42 19
-50 31 -16 39 -13 89 34 35 33 52 42 62 36 26 -17 60 -11 96 16 26 20 34 23
34 11 0 -31 -22 -71 -60 -113 -85 -93 -65 -213 24 -143 32 25 61 79 77 143 11
46 58 106 82 106 7 0 18 -9 25 -20 18 -29 58 -25 102 10 21 17 39 30 41 30 2
0 2 -30 1 -66 -4 -74 12 -104 56 -104 37 0 118 87 181 194 84 143 58 127 -55
-34 -106 -152 -128 -156 -94 -18 23 92 32 120 67 194 13 28 21 59 17 68 -7 17
-49 22 -58 7 -3 -5 -33 -7 -66 -4 l-61 6 -43 -47 c-24 -25 -60 -78 -80 -116
-32 -61 -72 -107 -84 -96 -2 2 6 47 17 100 25 116 26 145 5 153 -29 11 -45
-10 -83 -103 -36 -92 -55 -124 -73 -124 -10 0 -10 4 18 144 17 86 17 89 -1
102 -23 17 -49 18 -63 2 -5 -7 -20 -69 -32 -138 -22 -125 -40 -169 -81 -190
-27 -15 -25 4 16 151 19 68 35 127 35 131 0 4 -9 12 -20 18 -33 18 -57 -3 -69
-60 -18 -85 -78 -190 -108 -190 -19 0 -16 32 12 140 31 119 31 128 0 142 -34
15 -51 -2 -71 -69 -11 -38 -22 -57 -37 -62 -15 -6 -23 -4 -25 4 -2 7 10 68 27
135 16 68 27 130 24 137 -6 14 -41 17 -59 5 -7 -4 -28 -48 -47 -98 -59 -152
-79 -184 -118 -184 -14 0 -11 32 12 176 25 153 22 184 -19 184 -16 0 -36 -6
-47 -13z m1095 -283 c0 -14 -116 -174 -127 -174 -24 0 -24 23 2 75 28 59 75
105 106 105 10 0 19 -3 19 -6z m-990 -213 c0 -11 -12 -33 -26 -48 l-25 -28 7
25 c6 22 34 69 42 70 1 0 2 -9 2 -19z m574 -164 c-15 -45 -34 -55 -34 -18 0
18 39 75 46 68 2 -2 -3 -25 -12 -50z"/>
</g>
</svg>
